<svg width="50" height="50" viewBox="0 0 50 50" fill="none" xmlns="http://www.w3.org/2000/svg">
<path d="M42.2133 17.9278C41.7273 17.9278 41.2613 18.1208 40.9177 18.4644C40.5741 18.808 40.3811 19.2741 40.3811 19.76V42.8637C40.3811 43.7845 40.0153 44.6676 39.3642 45.3187C38.7131 45.9699 37.8299 46.3357 36.9091 46.3357H7.13631C6.21549 46.3357 5.33238 45.9699 4.68126 45.3187C4.03014 44.6676 3.66435 43.7845 3.66435 42.8637V13.0909C3.66435 12.17 4.03014 11.2869 4.68126 10.6358C5.33238 9.9847 6.21549 9.61891 7.13631 9.61891H30.24C30.7259 9.61891 31.192 9.42587 31.5356 9.08227C31.8792 8.73867 32.0722 8.27265 32.0722 7.78673C32.0722 7.30081 31.8792 6.83479 31.5356 6.49119C31.192 6.14759 30.7259 5.95456 30.24 5.95456H7.13631C5.24365 5.95456 3.4285 6.70642 2.09018 8.04474C0.751859 9.38306 0 11.1982 0 13.0909V42.8637C0 44.7564 0.751859 46.5715 2.09018 47.9098C3.4285 49.2481 5.24365 50 7.13631 50H36.9091C38.8018 50 40.6169 49.2481 41.9553 47.9098C43.2936 46.5715 44.0454 44.7564 44.0454 42.8637V19.76C44.0454 19.2741 43.8524 18.808 43.5088 18.4644C43.1652 18.1208 42.6992 17.9278 42.2133 17.9278Z" fill="black"/>
<path d="M48.1678 5.95456H44.0454V1.83217C44.0454 1.34625 43.8524 0.88023 43.5088 0.536631C43.1652 0.193032 42.6992 0 42.2132 0C41.7273 0 41.2613 0.193032 40.9177 0.536631C40.5741 0.88023 40.3811 1.34625 40.3811 1.83217V5.95456H36.2587C35.7728 5.95456 35.3067 6.14759 34.9631 6.49119C34.6195 6.83479 34.4265 7.30081 34.4265 7.78673C34.4265 8.27266 34.6195 8.73868 34.9631 9.08228C35.3067 9.42588 35.7728 9.61891 36.2587 9.61891H40.3811V13.7413C40.3811 14.2272 40.5741 14.6932 40.9177 15.0368C41.2613 15.3804 41.7273 15.5735 42.2132 15.5735C42.6992 15.5735 43.1652 15.3804 43.5088 15.0368C43.8524 14.6932 44.0454 14.2272 44.0454 13.7413V9.61891H48.1678C48.6537 9.61891 49.1198 9.42588 49.4634 9.08228C49.8069 8.73868 50 8.27266 50 7.78673C50 7.30081 49.8069 6.83479 49.4634 6.49119C49.1198 6.14759 48.6537 5.95456 48.1678 5.95456Z" fill="black"/>
</svg>
