<svg width="50" height="50" viewBox="0 0 50 50" fill="none" xmlns="http://www.w3.org/2000/svg">
<path d="M29.8438 27.9688C28.75 29.0625 26.875 29.0625 25.7812 27.9688C24.6875 26.875 24.6875 25 25.7812 23.9063C26.875 22.8125 28.75 22.8125 29.8438 23.9063C37.1875 16.5625 41.4062 8.59377 39.0625 6.40627C38.125 5.46877 35.9375 5.62502 33.2812 6.87502" stroke="black" stroke-width="3.5" stroke-miterlimit="10" stroke-linejoin="round"/>
<path d="M10.9375 42.1875C10.9375 43.9063 9.53125 45.3125 7.8125 45.3125C6.09375 45.3125 4.6875 43.9063 4.6875 42.1875C4.6875 40.4687 7.8125 37.5 7.8125 37.5C7.8125 37.5 10.9375 40.4687 10.9375 42.1875Z" stroke="black" stroke-width="3.5" stroke-miterlimit="10" stroke-linejoin="round"/>
<path d="M5.62501 30.625C7.03126 32.0312 9.21876 32.0312 10.625 30.625L30.9375 10.4687C29.2188 8.75 26.4063 8.75 24.6875 10.4687L18.4375 16.7187C15 20.1562 11.0938 22.9687 6.56251 24.8437C4.37501 25.9375 3.90626 28.9062 5.62501 30.625Z" stroke="black" stroke-width="3.5" stroke-miterlimit="10" stroke-linejoin="round"/>
<path d="M30.9375 10.4688L43.75 25C45.7813 27.3438 45.625 30.7813 43.4375 32.9688L34.6875 41.7188C32.5 43.9063 29.0625 44.0625 26.7188 42.0313L12.1875 29.2188" stroke="black" stroke-width="3.5" stroke-miterlimit="10" stroke-linejoin="round"/>
<rect width="50" height="50" stroke="black"/>
</svg>
