<svg width="50" height="37" viewBox="0 0 50 37" fill="none" xmlns="http://www.w3.org/2000/svg">
<path d="M45.0667 0H4.93333C3.62493 0 2.37012 0.51976 1.44494 1.44494C0.519761 2.37012 0 3.62493 0 4.93333V31.7333C0 33.0417 0.519761 34.2965 1.44494 35.2217C2.37012 36.1469 3.62493 36.6667 4.93333 36.6667H45.0667C46.3751 36.6667 47.6299 36.1469 48.5551 35.2217C49.4802 34.2965 50 33.0417 50 31.7333V4.93333C50 3.62493 49.4802 2.37012 48.5551 1.44494C47.6299 0.51976 46.3751 0 45.0667 0ZM4.93333 3.33333H45.0667C45.491 3.33333 45.898 3.5019 46.198 3.80196C46.4981 4.10202 46.6667 4.50899 46.6667 4.93333V15.675L40.1167 11.5083C39.0253 10.8252 37.7171 10.577 36.4514 10.8132C35.1856 11.0494 34.0549 11.7526 33.2833 12.7833C31.325 15.425 28.4833 19.2417 25.55 23.15L20.9583 18.3333C20.1687 17.4927 19.1171 16.945 17.9756 16.78C16.8341 16.615 15.6704 16.8424 14.675 17.425L3.33333 24.025V4.93333C3.33333 4.50899 3.5019 4.10202 3.80196 3.80196C4.10202 3.5019 4.50899 3.33333 4.93333 3.33333ZM3.33333 31.7333V27.8833L16.3583 20.3083C16.7046 20.107 17.1088 20.0288 17.5052 20.0863C17.9016 20.1438 18.2668 20.3336 18.5417 20.625L30.5667 33.3333H4.93333C4.50899 33.3333 4.10202 33.1648 3.80196 32.8647C3.5019 32.5646 3.33333 32.1577 3.33333 31.7333ZM45.0667 33.3333H35.1583L27.875 25.6417C30.9333 21.575 33.925 17.5583 35.9583 14.8083C36.2266 14.4502 36.6197 14.2059 37.0597 14.1241C37.4996 14.0423 37.9542 14.1289 38.3333 14.3667L46.6667 19.6167V31.7333C46.6667 32.1577 46.4981 32.5646 46.198 32.8647C45.898 33.1648 45.491 33.3333 45.0667 33.3333Z" fill="black"/>
</svg>
