<svg width="50" height="50" viewBox="0 0 50 50" fill="none" xmlns="http://www.w3.org/2000/svg">
<path d="M12.5 8.33334H29.1667C31.3768 8.33334 33.4964 9.21132 35.0592 10.7741C36.622 12.3369 37.5 14.4565 37.5 16.6667C37.5 18.8768 36.622 20.9964 35.0592 22.5592C33.4964 24.122 31.3768 25 29.1667 25H12.5V8.33334Z" stroke="black" stroke-width="4" stroke-linecap="round" stroke-linejoin="round"/>
<path d="M12.5 25H31.25C33.4601 25 35.5798 25.878 37.1426 27.4408C38.7054 29.0036 39.5833 31.1232 39.5833 33.3333C39.5833 35.5435 38.7054 37.6631 37.1426 39.2259C35.5798 40.7887 33.4601 41.6667 31.25 41.6667H12.5V25Z" stroke="black" stroke-width="4" stroke-linecap="round" stroke-linejoin="round"/>
</svg>
