<svg width="50" height="50" viewBox="0 0 50 50" fill="none" xmlns="http://www.w3.org/2000/svg">
<path d="M41.0759 26.0686L41.084 26.0907L41.0931 26.1125C41.0987 26.1259 41.1016 26.1403 41.1016 26.1548V26.1562V46.875C41.1016 46.9206 41.0835 46.9643 41.0512 46.9965C41.019 47.0288 40.9753 47.0469 40.9297 47.0469H18.75H18.7367L18.7233 47.0472C18.7004 47.0478 18.6775 47.0438 18.6562 47.0355L18.2919 47.9668L18.6561 47.0355C18.6348 47.0271 18.6153 47.0146 18.5988 46.9985C18.5824 46.9825 18.5693 46.9634 18.5604 46.9422C18.5515 46.921 18.5469 46.8983 18.5469 46.8754V46.875V32.0547V31.0547H17.5469H9.07031C9.02473 31.0547 8.98101 31.0366 8.94878 31.0043C8.91655 30.9721 8.89844 30.9284 8.89844 30.8828V3.125C8.89844 3.07942 8.91655 3.0357 8.94878 3.00347C8.98101 2.97123 9.02473 2.95312 9.07031 2.95312H24.2002C24.2258 2.95474 24.2509 2.96099 24.2743 2.97161L24.6878 2.0619L24.2743 2.97162C24.3 2.9833 24.3231 3.00004 24.3422 3.02083L24.3563 3.03614L24.371 3.05086L31.4023 10.0821L31.4088 10.0887L31.4155 10.0951C31.4298 10.1089 31.4412 10.1253 31.449 10.1435C31.4566 10.1613 31.4606 10.1803 31.4609 10.1996V17.9531V18.8763L32.3812 18.9499C32.5902 18.9667 32.8327 18.9583 33.0193 18.9519L33.036 18.9513L33.0455 18.951C33.256 18.9438 33.4432 18.9373 33.6212 18.9429C33.805 18.9486 33.9262 18.9663 33.9985 18.987C34.0005 18.9876 34.0024 18.9881 34.0042 18.9887L34.0195 19.004L41.0507 26.0352L41.0506 26.0353L41.0608 26.0451C41.064 26.0483 41.0668 26.0517 41.0693 26.0554C41.072 26.0595 41.0742 26.0639 41.0759 26.0686ZM34.0332 18.999C34.0332 18.9991 34.0323 18.9987 34.0307 18.9978C34.0324 18.9986 34.0333 18.999 34.0332 18.999ZM35.7714 21.24L34.0625 19.5223V21.9453V25V26H35.0625H38.1016H40.507L38.8105 24.2947L35.7714 21.24ZM26.1212 5.24602L24.4141 3.53891V5.95312V8.99219V9.99219H25.4141H28.4531H30.8673L29.1602 8.28508L26.1212 5.24602ZM9.24219 29.6875V30.6875H10.2422H17.5781H18.5781V29.6875V19.1406C18.5781 19.095 18.5962 19.0513 18.6285 19.0191C18.6607 18.9869 18.7044 18.9688 18.75 18.9688H30.1094H31.1094V17.9688V11.3281V10.3281H30.1094H24.2422C24.1966 10.3281 24.1529 10.31 24.1207 10.2778C24.0884 10.2456 24.0703 10.2018 24.0703 10.1562V4.29688V3.29688H23.0703H10.2422H9.24219V4.29688V29.6875ZM18.8906 45.7031V46.7031H19.8906H39.7578H40.7578V45.7031V27.3516V26.3516H39.7578H33.8906C33.845 26.3516 33.8013 26.3335 33.7691 26.3012C33.7369 26.269 33.7188 26.2253 33.7188 26.1797V20.3125V19.3125H32.7188H19.8906H18.8906V20.3125V45.7031Z" fill="black" stroke="black" stroke-width="2"/>
</svg>
