<svg width="42" height="50" viewBox="0 0 42 50" fill="none" xmlns="http://www.w3.org/2000/svg">
<path d="M39.8167 8.83333H29.6333V8.05833C29.6311 5.92181 28.7814 3.87342 27.2707 2.36267C25.7599 0.851915 23.7115 0.00220602 21.575 0H19.5833C17.4468 0.00220602 15.3984 0.851915 13.8877 2.36267C12.3769 3.87342 11.5272 5.92181 11.525 8.05833V8.83333H1.66667C1.22464 8.83333 0.800716 9.00893 0.488155 9.32149C0.175595 9.63405 0 10.058 0 10.5C0 10.942 0.175595 11.366 0.488155 11.6785C0.800716 11.9911 1.22464 12.1667 1.66667 12.1667H3.74167V45.45C3.74167 46.6567 4.22104 47.814 5.07433 48.6673C5.92762 49.5206 7.08493 50 8.29167 50H32.875C34.0788 49.9956 35.2319 49.5143 36.0816 48.6615C36.9313 47.8086 37.4083 46.6539 37.4083 45.45V12.1667H39.8083C40.2504 12.1667 40.6743 11.9911 40.9868 11.6785C41.2994 11.366 41.475 10.942 41.475 10.5C41.475 10.058 41.2994 9.63405 40.9868 9.32149C40.6743 9.00893 40.2504 8.83333 39.8083 8.83333H39.8167ZM14.8167 8.05833C14.8166 7.43432 14.9402 6.81647 15.1803 6.24048C15.4203 5.66448 15.7721 5.14174 16.2153 4.70244C16.6585 4.26313 17.1843 3.91596 17.7624 3.68097C18.3404 3.44598 18.9593 3.32783 19.5833 3.33333H21.575C22.8281 3.33333 24.03 3.83114 24.9161 4.71725C25.8022 5.60336 26.3 6.80519 26.3 8.05833V8.83333H14.8583L14.8167 8.05833ZM34.075 45.45C34.075 45.7698 33.9491 46.0768 33.7246 46.3045C33.5 46.5322 33.1948 46.6623 32.875 46.6667H8.29167C7.96899 46.6667 7.65952 46.5385 7.43135 46.3103C7.20318 46.0821 7.075 45.7727 7.075 45.45V12.1667H34.075V45.45Z" fill="black"/>
<path d="M13.1917 15.7083C12.7497 15.7083 12.3257 15.8839 12.0132 16.1965C11.7006 16.5091 11.525 16.933 11.525 17.375V41.4583C11.525 41.9004 11.7006 42.3243 12.0132 42.6369C12.3257 42.9494 12.7497 43.125 13.1917 43.125C13.6337 43.125 14.0576 42.9494 14.3702 42.6369C14.6828 42.3243 14.8584 41.9004 14.8584 41.4583V17.375C14.8584 16.933 14.6828 16.5091 14.3702 16.1965C14.0576 15.8839 13.6337 15.7083 13.1917 15.7083Z" fill="black"/>
<path d="M20.5834 15.7083C20.1413 15.7083 19.7174 15.8839 19.4048 16.1965C19.0923 16.5091 18.9167 16.933 18.9167 17.375V41.4583C18.9167 41.9004 19.0923 42.3243 19.4048 42.6369C19.7174 42.9494 20.1413 43.125 20.5834 43.125C21.0254 43.125 21.4493 42.9494 21.7619 42.6369C22.0744 42.3243 22.25 41.9004 22.25 41.4583V17.375C22.25 17.1561 22.2069 16.9394 22.1232 16.7372C22.0394 16.535 21.9166 16.3513 21.7619 16.1965C21.6071 16.0417 21.4234 15.919 21.2212 15.8352C21.019 15.7515 20.8022 15.7083 20.5834 15.7083Z" fill="black"/>
<path d="M26.3 17.375V41.4583C26.3 41.9004 26.4756 42.3243 26.7881 42.6369C27.1007 42.9494 27.5246 43.125 27.9667 43.125C28.4087 43.125 28.8326 42.9494 29.1452 42.6369C29.4577 42.3243 29.6333 41.9004 29.6333 41.4583V17.375C29.6333 16.933 29.4577 16.5091 29.1452 16.1965C28.8326 15.8839 28.4087 15.7083 27.9667 15.7083C27.5246 15.7083 27.1007 15.8839 26.7881 16.1965C26.4756 16.5091 26.3 16.933 26.3 17.375Z" fill="black"/>
</svg>
