<svg width="50" height="50" viewBox="0 0 50 50" fill="none" xmlns="http://www.w3.org/2000/svg">
<path d="M48.1798 31.4706C47.6971 31.4706 47.2341 31.6772 46.8928 32.0449C46.5514 32.4126 46.3597 32.9113 46.3597 33.4314V40.1275C46.3573 41.705 45.7745 43.2171 44.739 44.3326C43.7035 45.448 42.2998 46.0758 40.8355 46.0784H9.16454C7.70017 46.0758 6.29646 45.448 5.261 44.3326C4.22553 43.2171 3.64274 41.705 3.64033 40.1275V33.4314C3.64033 32.9113 3.44857 32.4126 3.10722 32.0449C2.76587 31.6772 2.30291 31.4706 1.82017 31.4706C1.33743 31.4706 0.874462 31.6772 0.533115 32.0449C0.191767 32.4126 0 32.9113 0 33.4314V40.1275C0.00240937 42.745 0.96873 45.2546 2.68689 47.1055C4.40506 48.9564 6.73469 49.9974 9.16454 50H40.8355C43.2653 49.9974 45.5949 48.9564 47.3131 47.1055C49.0313 45.2546 49.9976 42.745 50 40.1275V33.4314C50 32.9113 49.8082 32.4126 49.4669 32.0449C49.1255 31.6772 48.6626 31.4706 48.1798 31.4706Z" fill="black"/>
<path d="M23.7077 37.1961C23.7939 37.2877 23.8884 37.3698 23.9898 37.4412L24.1263 37.5196L24.3083 37.6176L24.4904 37.6765L24.6451 37.7255C24.8794 37.7757 25.1206 37.7757 25.3549 37.7255L25.5097 37.6765L25.6917 37.6176L25.8737 37.5196L26.0102 37.4412C26.1116 37.3698 26.2061 37.2877 26.2923 37.1961L36.6491 26.0392C36.938 25.6646 37.0873 25.1876 37.0677 24.701C37.0481 24.2144 36.8611 23.7531 36.5431 23.4069C36.2251 23.0607 35.7989 22.8543 35.3475 22.8281C34.896 22.8018 34.4516 22.9574 34.1008 23.2647L26.8202 31.1078V1.96078C26.8202 1.44075 26.6284 0.942019 26.2871 0.5743C25.9457 0.206582 25.4827 0 25 0C24.5173 0 24.0543 0.206582 23.713 0.5743C23.3716 0.942019 23.1798 1.44075 23.1798 1.96078V31.0784L15.8992 23.2353C15.5576 22.8674 15.0944 22.6607 14.6114 22.6607C14.1284 22.6607 13.6652 22.8674 13.3236 23.2353C12.9821 23.6032 12.7902 24.1022 12.7902 24.6225C12.7902 25.1429 12.9821 25.6419 13.3236 26.0098L23.7077 37.1961Z" fill="black"/>
</svg>
