<svg width="50" height="50" viewBox="0 0 50 50" fill="none" xmlns="http://www.w3.org/2000/svg">
<path d="M42.1875 36.25V13.75C44.0625 13.125 45.3125 11.4062 45.3125 9.375C45.3125 6.71875 43.2813 4.6875 40.625 4.6875C38.5938 4.6875 36.875 5.9375 36.25 7.8125H13.75C13.125 5.9375 11.4062 4.6875 9.375 4.6875C6.71875 4.6875 4.6875 6.71875 4.6875 9.375C4.6875 11.4062 5.9375 13.125 7.8125 13.75V36.25C5.9375 36.875 4.6875 38.5938 4.6875 40.625C4.6875 43.2813 6.71875 45.3125 9.375 45.3125C11.4062 45.3125 13.125 44.0625 13.75 42.1875H36.25C36.875 44.0625 38.5938 45.3125 40.625 45.3125C43.2813 45.3125 45.3125 43.2813 45.3125 40.625C45.3125 38.5938 44.0625 36.875 42.1875 36.25Z" stroke="black" stroke-width="3.5" stroke-miterlimit="10" stroke-linejoin="round"/>
<path d="M35.9375 14.0625H14.0625V35.9375H35.9375V14.0625Z" stroke="black" stroke-width="3.5" stroke-miterlimit="10" stroke-linejoin="round"/>
<path d="M20.3125 21.875C21.1754 21.875 21.875 21.1754 21.875 20.3125C21.875 19.4496 21.1754 18.75 20.3125 18.75C19.4496 18.75 18.75 19.4496 18.75 20.3125C18.75 21.1754 19.4496 21.875 20.3125 21.875Z" stroke="black" stroke-width="3.5" stroke-miterlimit="10" stroke-linejoin="round"/>
<path d="M14.0625 31.25L25 25L31.25 29.6875L35.9375 26.5625" stroke="black" stroke-width="3.5" stroke-miterlimit="10" stroke-linejoin="round"/>
</svg>
