<svg width="50" height="50" viewBox="0 0 50 50" fill="none" xmlns="http://www.w3.org/2000/svg">
<path d="M15.625 18.75V29.6875" stroke="black" stroke-width="3.5" stroke-miterlimit="10" stroke-linecap="round"/>
<path d="M21.875 17.1875V21.875" stroke="black" stroke-width="3.5" stroke-miterlimit="10" stroke-linecap="round"/>
<path d="M28.125 18.75V21.875" stroke="black" stroke-width="3.5" stroke-miterlimit="10" stroke-linecap="round"/>
<path d="M34.375 20.3125V23.4375" stroke="black" stroke-width="3.5" stroke-miterlimit="10" stroke-linecap="round"/>
<path d="M37.9687 18.75C35.9375 18.4375 34.375 20 34.375 21.875V20.4687C34.375 18.9062 33.2812 17.5 31.7187 17.1875C29.6875 16.875 28.125 18.4375 28.125 20.3125V18.9062C28.125 17.3437 27.0312 15.9375 25.4687 15.625C23.4375 15.3125 21.875 16.875 21.875 18.75V7.96873C21.875 6.40623 20.7813 4.99998 19.2188 4.68748C17.3438 4.37498 15.625 5.93748 15.625 7.81248V21.0937C15.625 18.75 13.5937 17.0312 11.25 17.1875C10.4687 17.1875 9.84375 17.5 9.375 17.9687V30C9.375 37.9687 15.4688 45 23.4375 45.3125C23.9063 45.3125 24.375 45.3125 24.6875 45.3125C33.75 45 40.625 37.3437 40.625 28.2812V28.125V22.0312C40.625 20.4687 39.5312 19.0625 37.9687 18.75Z" stroke="black" stroke-width="3.5" stroke-miterlimit="10" stroke-linecap="round"/>
</svg>
