<svg width="50" height="41" viewBox="0 0 50 41" fill="none" xmlns="http://www.w3.org/2000/svg">
<path d="M49.6656 12.9084C49.5048 12.6884 49.2945 12.5094 49.0517 12.3857C48.8089 12.262 48.5404 12.1973 48.2679 12.1966H42.2434V7.55234C42.2434 7.09188 42.0605 6.65028 41.7349 6.32468C41.4093 5.99909 40.9677 5.81617 40.5073 5.81617H27.6596L22.3556 0.51217C22.0315 0.186128 21.5913 0.00193825 21.1316 0H1.73856C1.2781 0 0.836502 0.182918 0.510907 0.508513C0.185312 0.834108 0.00239431 1.27571 0.00239431 1.73617V38.4909C-0.000798104 38.5516 -0.000798104 38.6125 0.00239431 38.6732C0.00239431 38.6732 0.00239431 38.76 0.00239431 38.8034C0.0249054 38.9225 0.059819 39.0389 0.106564 39.1507C0.15518 39.2669 0.216306 39.3775 0.288862 39.4805L0.349628 39.5413C0.402682 39.6092 0.460715 39.673 0.523245 39.7323L0.627416 39.8191L0.835756 39.958L0.948607 40.0187L1.20035 40.1142H1.30452C1.42984 40.1428 1.55795 40.1573 1.68648 40.1576H40.5073C40.6751 40.1556 40.8418 40.1293 41.0021 40.0795H41.0976C41.2456 40.0264 41.3858 39.9534 41.5142 39.8625L41.575 39.8104C41.689 39.7194 41.7911 39.6144 41.8788 39.4979L41.9222 39.4458C42.0145 39.312 42.0876 39.1659 42.1393 39.0118V38.9684L49.9173 14.4623C50.0007 14.2018 50.0214 13.9252 49.9777 13.6552C49.9339 13.3852 49.827 13.1293 49.6656 12.9084ZM3.47474 3.47234H20.4024L25.7064 8.77634C25.7812 8.85011 25.8626 8.91694 25.9495 8.976L26.097 9.05413L26.2446 9.13226L26.4356 9.19302H26.5745C26.6871 9.20405 26.8005 9.20405 26.913 9.19302H38.7711V12.1011H9.49925C9.12948 12.1007 8.76925 12.2184 8.47102 12.437C8.17279 12.6556 7.95213 12.9637 7.84121 13.3164L3.50078 27.1277V3.47234H3.47474ZM39.2399 36.7547H4.10844L10.7667 15.6689H45.8981L39.2399 36.7547Z" fill="black"/>
</svg>
