<svg width="50" height="50" viewBox="0 0 50 50" fill="none" xmlns="http://www.w3.org/2000/svg">
<path d="M48.3333 20.8333C47.8913 20.8333 47.4674 21.0089 47.1548 21.3215C46.8423 21.634 46.6667 22.058 46.6667 22.5V46.6667H26.6667V46.25C26.6667 45.808 26.4911 45.384 26.1785 45.0715C25.866 44.7589 25.442 44.5833 25 44.5833C24.558 44.5833 24.134 44.7589 23.8215 45.0715C23.5089 45.384 23.3333 45.808 23.3333 46.25V46.6667H3.33333V26.6667H3.75C4.19203 26.6667 4.61595 26.4911 4.92851 26.1785C5.24107 25.866 5.41667 25.442 5.41667 25C5.41667 24.558 5.24107 24.134 4.92851 23.8215C4.61595 23.5089 4.19203 23.3333 3.75 23.3333H3.33333V3.33333H27.5C27.942 3.33333 28.366 3.15774 28.6785 2.84518C28.9911 2.53262 29.1667 2.10869 29.1667 1.66667C29.1667 1.22464 28.9911 0.800716 28.6785 0.488155C28.366 0.175595 27.942 0 27.5 0H1.66667C1.22464 0 0.800716 0.175595 0.488155 0.488155C0.175595 0.800716 0 1.22464 0 1.66667V48.3333C0 48.7754 0.175595 49.1993 0.488155 49.5118C0.800716 49.8244 1.22464 50 1.66667 50H48.3333C48.7754 50 49.1993 49.8244 49.5118 49.5118C49.8244 49.1993 50 48.7754 50 48.3333V22.5C50 22.058 49.8244 21.634 49.5118 21.3215C49.1993 21.0089 48.7754 20.8333 48.3333 20.8333Z" fill="black"/>
<path d="M15.25 23.3333C14.808 23.3333 14.384 23.5089 14.0715 23.8215C13.7589 24.134 13.5833 24.558 13.5833 25C13.5833 25.442 13.7589 25.8659 14.0715 26.1785C14.384 26.4911 14.808 26.6666 15.25 26.6666H19.0833C19.5253 26.6666 19.9493 26.4911 20.2618 26.1785C20.5744 25.8659 20.75 25.442 20.75 25C20.75 24.558 20.5744 24.134 20.2618 23.8215C19.9493 23.5089 19.5253 23.3333 19.0833 23.3333H15.25Z" fill="black"/>
<path d="M7.58329 23.3333C7.14127 23.3333 6.71734 23.5089 6.40478 23.8215C6.09222 24.134 5.91663 24.558 5.91663 25C5.91663 25.442 6.09222 25.8659 6.40478 26.1785C6.71734 26.4911 7.14127 26.6666 7.58329 26.6666H11.4166C11.8587 26.6666 12.2826 26.4911 12.5951 26.1785C12.9077 25.8659 13.0833 25.442 13.0833 25C13.0833 24.558 12.9077 24.134 12.5951 23.8215C12.2826 23.5089 11.8587 23.3333 11.4166 23.3333H7.58329Z" fill="black"/>
<path d="M26.6666 30.9167C26.6666 30.4746 26.4911 30.0507 26.1785 29.7382C25.8659 29.4256 25.442 29.25 25 29.25C24.558 29.25 24.134 29.4256 23.8215 29.7382C23.5089 30.0507 23.3333 30.4746 23.3333 30.9167V34.75C23.3333 35.192 23.5089 35.616 23.8215 35.9285C24.134 36.2411 24.558 36.4167 25 36.4167C25.442 36.4167 25.8659 36.2411 26.1785 35.9285C26.4911 35.616 26.6666 35.192 26.6666 34.75V30.9167Z" fill="black"/>
<path d="M25 36.9166C24.558 36.9166 24.134 37.0922 23.8215 37.4048C23.5089 37.7173 23.3333 38.1413 23.3333 38.5833V42.4166C23.3333 42.8587 23.5089 43.2826 23.8215 43.5951C24.134 43.9077 24.558 44.0833 25 44.0833C25.442 44.0833 25.8659 43.9077 26.1785 43.5951C26.4911 43.2826 26.6666 42.8587 26.6666 42.4166V38.5833C26.6666 38.1413 26.4911 37.7173 26.1785 37.4048C25.8659 37.0922 25.442 36.9166 25 36.9166Z" fill="black"/>
<path d="M27.6417 8.33335C27.6417 8.77538 27.8173 9.1993 28.1298 9.51186C28.4424 9.82443 28.8663 10 29.3083 10H37.6417L24.3083 23.3334H22.9167C22.4746 23.3334 22.0507 23.5089 21.7382 23.8215C21.4256 24.1341 21.25 24.558 21.25 25C21.25 25.442 21.4256 25.866 21.7382 26.1785C22.0507 26.4911 22.4746 26.6667 22.9167 26.6667H23.3333V27.0834C23.3333 27.5254 23.5089 27.9493 23.8215 28.2619C24.134 28.5744 24.558 28.75 25 28.75C25.442 28.75 25.866 28.5744 26.1785 28.2619C26.4911 27.9493 26.6667 27.5254 26.6667 27.0834V25.6917L40 12.3584V20.6917C40 21.1337 40.1756 21.5576 40.4882 21.8702C40.8007 22.1828 41.2246 22.3584 41.6667 22.3584C42.1087 22.3584 42.5326 22.1828 42.8452 21.8702C43.1577 21.5576 43.3333 21.1337 43.3333 20.6917V8.33335C43.3439 8.22528 43.3439 8.11643 43.3333 8.00835C43.3333 7.95835 43.3333 7.90835 43.2917 7.86669C43.2779 7.8103 43.2612 7.75467 43.2417 7.70002C43.217 7.64295 43.1892 7.58731 43.1583 7.53335C43.1583 7.53335 43.1583 7.45002 43.0917 7.40835C42.9704 7.22705 42.8146 7.07133 42.6333 6.95002L42.5 6.87502L42.3417 6.79169L42.1667 6.74169H42.025C41.9087 6.7036 41.7885 6.67845 41.6667 6.66669H29.3083C28.8663 6.66669 28.4424 6.84228 28.1298 7.15484C27.8173 7.4674 27.6417 7.89133 27.6417 8.33335Z" fill="black"/>
</svg>
