<svg width="50" height="50" viewBox="0 0 50 50" fill="none" xmlns="http://www.w3.org/2000/svg">
<path d="M48.3333 20.8333C47.8913 20.8333 47.4674 21.0089 47.1548 21.3215C46.8423 21.634 46.6667 22.058 46.6667 22.5V46.6667H26.6667V46.25C26.6667 45.808 26.4911 45.384 26.1785 45.0715C25.866 44.7589 25.442 44.5833 25 44.5833C24.558 44.5833 24.134 44.7589 23.8215 45.0715C23.5089 45.384 23.3333 45.808 23.3333 46.25V46.6667H3.33333V26.6667H3.75C4.19203 26.6667 4.61595 26.4911 4.92851 26.1785C5.24107 25.866 5.41667 25.442 5.41667 25C5.41667 24.558 5.24107 24.134 4.92851 23.8215C4.61595 23.5089 4.19203 23.3333 3.75 23.3333H3.33333V3.33333H27.5C27.942 3.33333 28.366 3.15774 28.6785 2.84518C28.9911 2.53262 29.1667 2.10869 29.1667 1.66667C29.1667 1.22464 28.9911 0.800716 28.6785 0.488155C28.366 0.175595 27.942 0 27.5 0H1.66667C1.22464 0 0.800716 0.175595 0.488155 0.488155C0.175595 0.800716 0 1.22464 0 1.66667V48.3333C0 48.7754 0.175595 49.1993 0.488155 49.5118C0.800716 49.8244 1.22464 50 1.66667 50H48.3333C48.7754 50 49.1993 49.8244 49.5118 49.5118C49.8244 49.1993 50 48.7754 50 48.3333V22.5C50 22.058 49.8244 21.634 49.5118 21.3215C49.1993 21.0089 48.7754 20.8333 48.3333 20.8333Z" fill="black"/>
<path d="M7.58329 23.3333C7.14127 23.3333 6.71734 23.5089 6.40478 23.8215C6.09222 24.134 5.91663 24.558 5.91663 25C5.91663 25.442 6.09222 25.8659 6.40478 26.1785C6.71734 26.4911 7.14127 26.6666 7.58329 26.6666H11.4166C11.8587 26.6666 12.2826 26.4911 12.5951 26.1785C12.9077 25.8659 13.0833 25.442 13.0833 25C13.0833 24.558 12.9077 24.134 12.5951 23.8215C12.2826 23.5089 11.8587 23.3333 11.4166 23.3333H7.58329Z" fill="black"/>
<path d="M15.25 23.3333C14.808 23.3333 14.384 23.5089 14.0715 23.8215C13.7589 24.134 13.5833 24.558 13.5833 25C13.5833 25.442 13.7589 25.8659 14.0715 26.1785C14.384 26.4911 14.808 26.6666 15.25 26.6666H19.0833C19.5253 26.6666 19.9493 26.4911 20.2618 26.1785C20.5744 25.8659 20.75 25.442 20.75 25C20.75 24.558 20.5744 24.134 20.2618 23.8215C19.9493 23.5089 19.5253 23.3333 19.0833 23.3333H15.25Z" fill="black"/>
<path d="M26.6667 25C26.6667 24.558 26.4911 24.134 26.1785 23.8215C25.866 23.5089 25.442 23.3333 25 23.3333H22.9167C22.4746 23.3333 22.0507 23.5089 21.7382 23.8215C21.4256 24.134 21.25 24.558 21.25 25C21.25 25.442 21.4256 25.8659 21.7382 26.1785C22.0507 26.4911 22.4746 26.6666 22.9167 26.6666H23.3333V27.0833C23.3333 27.5253 23.5089 27.9493 23.8215 28.2618C24.134 28.5744 24.558 28.75 25 28.75C25.442 28.75 25.866 28.5744 26.1785 28.2618C26.4911 27.9493 26.6667 27.5253 26.6667 27.0833V25Z" fill="black"/>
<path d="M26.6666 30.9167C26.6666 30.4746 26.4911 30.0507 26.1785 29.7382C25.8659 29.4256 25.442 29.25 25 29.25C24.558 29.25 24.134 29.4256 23.8215 29.7382C23.5089 30.0507 23.3333 30.4746 23.3333 30.9167V34.75C23.3333 35.192 23.5089 35.616 23.8215 35.9285C24.134 36.2411 24.558 36.4167 25 36.4167C25.442 36.4167 25.8659 36.2411 26.1785 35.9285C26.4911 35.616 26.6666 35.192 26.6666 34.75V30.9167Z" fill="black"/>
<path d="M25 36.9166C24.558 36.9166 24.134 37.0922 23.8215 37.4048C23.5089 37.7173 23.3333 38.1413 23.3333 38.5833V42.4166C23.3333 42.8587 23.5089 43.2826 23.8215 43.5951C24.134 43.9077 24.558 44.0833 25 44.0833C25.442 44.0833 25.8659 43.9077 26.1785 43.5951C26.4911 43.2826 26.6666 42.8587 26.6666 42.4166V38.5833C26.6666 38.1413 26.4911 37.7173 26.1785 37.4048C25.8659 37.0922 25.442 36.9166 25 36.9166Z" fill="black"/>
<path d="M26.525 9.45V21.8083C26.5144 21.9164 26.5144 22.0253 26.525 22.1333C26.525 22.1833 26.525 22.2333 26.5667 22.275C26.5927 22.394 26.6407 22.507 26.7084 22.6083C26.7084 22.6083 26.7084 22.6917 26.775 22.7333C26.8963 22.9146 27.0521 23.0704 27.2334 23.1917L27.3584 23.2583L27.525 23.3417L27.6917 23.3917L27.8334 23.4333C27.9414 23.4439 28.0503 23.4439 28.1584 23.4333H40.55C40.9921 23.4333 41.416 23.2577 41.7285 22.9452C42.0411 22.6326 42.2167 22.2087 42.2167 21.7667C42.2167 21.3246 42.0411 20.9007 41.7285 20.5882C41.416 20.2756 40.9921 20.1 40.55 20.1H32.2167L46.0417 6.31667C46.1965 6.16182 46.3194 5.97799 46.4032 5.77566C46.487 5.57334 46.5301 5.35649 46.5301 5.1375C46.5301 4.91851 46.487 4.70166 46.4032 4.49934C46.3194 4.29702 46.1965 4.11319 46.0417 3.95834C45.8868 3.80349 45.703 3.68065 45.5007 3.59685C45.2984 3.51304 45.0815 3.46991 44.8625 3.46991C44.6435 3.46991 44.4267 3.51304 44.2244 3.59685C44.022 3.68065 43.8382 3.80349 43.6834 3.95834L29.8584 17.7833V9.45C29.8584 9.00798 29.6828 8.58405 29.3702 8.27149C29.0576 7.95893 28.6337 7.78334 28.1917 7.78334C27.7497 7.78334 27.3257 7.95893 27.0132 8.27149C26.7006 8.58405 26.525 9.00798 26.525 9.45Z" fill="black"/>
</svg>
