<svg width="50" height="45" viewBox="0 0 50 45" fill="none" xmlns="http://www.w3.org/2000/svg">
<path d="M49.2261 11.159C48.8338 10.953 48.3757 10.9113 47.9527 11.0429C47.5296 11.1745 47.1761 11.4688 46.9699 11.861L44.2708 17.0252C43.1038 12.3532 40.4669 8.1796 36.7485 5.11966C33.0301 2.05972 28.4271 0.275273 23.6178 0.0293351C18.8086 -0.216603 14.0475 1.08898 10.0364 3.75365C6.02529 6.41831 2.97632 10.3011 1.3389 14.8297C-0.298532 19.3583 -0.437795 24.2932 0.941634 28.9069C2.32106 33.5207 5.1462 37.5692 9.00066 40.4559C12.8551 43.3425 17.535 44.9145 22.3504 44.9402C27.1659 44.9659 31.8623 43.4438 35.7473 40.5985C35.9314 40.4714 36.0882 40.3086 36.2082 40.1198C36.3282 39.931 36.4092 39.72 36.4461 39.4993C36.4831 39.2787 36.4754 39.0528 36.4235 38.8352C36.3716 38.6176 36.2765 38.4126 36.1438 38.2324C36.0112 38.0522 35.8438 37.9005 35.6514 37.7862C35.459 37.6719 35.2457 37.5974 35.024 37.5672C34.8023 37.5369 34.5768 37.5514 34.3609 37.6099C34.1449 37.6684 33.9429 37.7697 33.7668 37.9077C31.5293 39.5512 28.9607 40.6879 26.2397 41.2389C23.5186 41.7899 20.7102 41.7419 18.0095 41.0983C15.3088 40.4547 12.7806 39.2309 10.6005 37.5119C8.42039 35.7929 6.6406 33.6199 5.38476 31.1439C4.12892 28.6679 3.42713 25.9482 3.32815 23.1736C3.22916 20.3991 3.73534 17.6363 4.81154 15.077C5.88773 12.5178 7.50814 10.2235 9.56022 8.35356C11.6123 6.48359 14.0469 5.08274 16.6948 4.24831C19.3276 3.42006 22.1085 3.17089 24.8466 3.51789C27.5848 3.86489 30.2155 4.79985 32.5585 6.25868C34.9016 7.71751 36.9014 9.66571 38.4211 11.9697C39.9407 14.2738 40.9442 16.8792 41.3628 19.6073L34.1763 15.8052C33.784 15.5979 33.3255 15.555 32.9016 15.6859C32.4777 15.8167 32.1231 16.1106 31.9159 16.5029C31.7087 16.8952 31.6658 17.3537 31.7966 17.7776C31.9275 18.2015 32.2214 18.5561 32.6137 18.7633L42.4658 23.961H42.5159C42.5994 24.0015 42.686 24.0351 42.775 24.0612H42.8753C42.9864 24.0724 43.0984 24.0724 43.2095 24.0612C43.342 24.0601 43.4738 24.0433 43.6023 24.0111H43.7109C43.809 23.9809 43.9041 23.9417 43.995 23.8941L44.0869 23.844C44.1992 23.7756 44.3029 23.6943 44.3961 23.6016V23.5515C44.4761 23.4618 44.5461 23.3637 44.605 23.259V23.2089L49.8027 13.3567C50.0013 12.9852 50.0522 12.5523 49.9453 12.1448C49.8384 11.7373 49.5815 11.3852 49.2261 11.159Z" fill="black"/>
</svg>
