<svg width="50" height="47" viewBox="0 0 50 47" fill="none" xmlns="http://www.w3.org/2000/svg">
<path d="M49.9899 27.0141L45.8249 4.68977C45.7522 4.3032 45.545 3.95482 45.2401 3.70632C44.9352 3.45781 44.5522 3.32521 44.1589 3.33199H35.9872C35.5454 3.33199 35.1216 3.50751 34.8092 3.81995C34.4968 4.13238 34.3212 4.55613 34.3212 4.99798C34.3212 5.43983 34.4968 5.86358 34.8092 6.17602C35.1216 6.48845 35.5454 6.66397 35.9872 6.66397H42.7761L46.3247 25.6563H31.7973H31.614H31.4807L31.2891 25.7146L31.1892 25.7563L30.9892 25.8645L30.9143 25.9145L30.731 26.0645L30.6727 26.1228L30.5311 26.2977L30.4728 26.381C30.436 26.4372 30.4026 26.4957 30.3728 26.5559L30.3228 26.6809C30.3033 26.7355 30.2866 26.7911 30.2729 26.8475C30.2729 26.8975 30.2729 26.9558 30.2729 27.0057C30.2729 27.0557 30.2729 27.0557 30.2729 27.089L29.5482 33.5947H20.5185L19.8438 27.1224C19.8438 27.1224 19.8438 27.0724 19.8438 27.0391C19.8266 26.9283 19.7987 26.8195 19.7605 26.7142L19.7021 26.5726L19.6188 26.4143L19.5439 26.306L19.4189 26.1561L19.3356 26.0728L19.1774 25.9395L19.0857 25.8729L18.8275 25.8229L18.7109 25.7729L18.5276 25.7146H18.3943H18.2111H3.67529L7.22386 6.66397H14.0128C14.4546 6.66397 14.8784 6.48845 15.1908 6.17602C15.5032 5.86358 15.6788 5.43983 15.6788 4.99798C15.6788 4.55613 15.5032 4.13238 15.1908 3.81995C14.8784 3.50751 14.4546 3.33199 14.0128 3.33199H5.84108C5.44779 3.32521 5.06478 3.45781 4.75987 3.70632C4.45495 3.95482 4.2478 4.3032 4.17509 4.68977L0.0101099 27.0141C-0.00336998 27.1359 -0.00336998 27.2588 0.0101099 27.3806V44.9818C0.0101099 45.4237 0.185634 45.8474 0.498068 46.1598C0.810502 46.4723 1.23425 46.6478 1.6761 46.6478H48.3239C48.7658 46.6478 49.1895 46.4723 49.5019 46.1598C49.8144 45.8474 49.9899 45.4237 49.9899 44.9818V27.3806C50.0034 27.2588 50.0034 27.1359 49.9899 27.0141ZM46.6579 43.3158H3.3421V28.9883H16.67L17.1865 33.9863C17.2726 34.8119 17.66 35.5769 18.2748 36.1347C18.8895 36.6926 19.6884 37.0043 20.5185 37.01H29.4899C30.32 37.0043 31.1188 36.6926 31.7336 36.1347C32.3483 35.5769 32.7358 34.8119 32.8218 33.9863L33.3383 28.9883H46.6579V43.3158Z" fill="black"/>
<path d="M15.4955 13.6778L23.8255 22.0078C23.9044 22.0856 23.9909 22.1554 24.0837 22.216L24.2087 22.2827L24.3753 22.366L24.5419 22.4159L24.6835 22.4576C24.898 22.5002 25.1187 22.5002 25.3332 22.4576L25.4748 22.4159L25.6414 22.366L25.808 22.2827L25.933 22.216C26.0258 22.1554 26.1123 22.0856 26.1912 22.0078L34.5212 13.6778C34.8338 13.3652 35.0094 12.9412 35.0094 12.4991C35.0094 12.057 34.8338 11.633 34.5212 11.3204C34.2086 11.0078 33.7846 10.8322 33.3425 10.8322C32.9004 10.8322 32.4764 11.0078 32.1638 11.3204L26.666 16.8099V1.66599C26.666 1.22414 26.4905 0.800392 26.178 0.487958C25.8656 0.175524 25.4419 0 25 0C24.5582 0 24.1344 0.175524 23.822 0.487958C23.5095 0.800392 23.334 1.22414 23.334 1.66599V16.8099L17.8446 11.3204C17.532 11.0078 17.108 10.8322 16.6659 10.8322C16.2238 10.8322 15.7998 11.0078 15.4872 11.3204C15.1746 11.633 14.999 12.057 14.999 12.4991C14.999 12.9412 15.1746 13.3652 15.4872 13.6778H15.4955Z" fill="black"/>
</svg>
