<svg width="50" height="50" viewBox="0 0 50 50" fill="none" xmlns="http://www.w3.org/2000/svg">
<path d="M39.3047 25.0391C38.8903 25.0391 38.4929 25.2037 38.1998 25.4967C37.9068 25.7897 37.7422 26.1872 37.7422 26.6016V41.3281C37.7422 41.9829 37.4821 42.6108 37.0191 43.0738C36.5561 43.5368 35.9282 43.7969 35.2734 43.7969H8.90625C8.2515 43.7969 7.62356 43.5368 7.16058 43.0738C6.6976 42.6108 6.4375 41.9829 6.4375 41.3281V14.9609C6.43957 14.3075 6.70058 13.6816 7.16334 13.2203C7.62609 12.759 8.25285 12.5 8.90625 12.5H23.6328C24.0472 12.5 24.4446 12.3354 24.7377 12.0424C25.0307 11.7493 25.1953 11.3519 25.1953 10.9375C25.1953 10.5231 25.0307 10.1257 24.7377 9.83265C24.4446 9.53962 24.0472 9.375 23.6328 9.375H8.90625C7.42333 9.37707 6.00174 9.96707 4.95315 11.0157C3.90457 12.0642 3.31457 13.4858 3.3125 14.9688V41.3281C3.31457 42.811 3.90457 44.2326 4.95315 45.2812C6.00174 46.3298 7.42333 46.9198 8.90625 46.9219H35.2734C36.7564 46.9198 38.1779 46.3298 39.2265 45.2812C40.2751 44.2326 40.8651 42.811 40.8672 41.3281V26.6016C40.8672 26.1872 40.7026 25.7897 40.4095 25.4967C40.1165 25.2037 39.7191 25.0391 39.3047 25.0391Z" fill="black"/>
<path d="M45.3125 4.89841L44.5312 4.16404C44.1252 3.79524 43.6504 3.51013 43.1341 3.32503C42.6177 3.13993 42.0699 3.05847 41.5221 3.08532C40.9742 3.11217 40.437 3.2468 39.9412 3.4815C39.4455 3.7162 39.0008 4.04636 38.6328 4.4531C38.3779 4.74221 38.1649 5.06568 38 5.41404C37.7856 5.32216 37.5534 5.27945 37.3203 5.28904C36.908 5.30923 36.5204 5.4918 36.2422 5.79685L19.4609 24.2812C19.2648 24.5011 19.1348 24.7719 19.0859 25.0625L17.5234 32.7422C17.476 33.0068 17.4977 33.2792 17.5864 33.533C17.6751 33.7868 17.8278 34.0134 18.0296 34.1909C18.2315 34.3685 18.4758 34.4909 18.7389 34.5464C19.0019 34.6019 19.2748 34.5886 19.5312 34.5078L27.0234 32.2422C27.2938 32.16 27.5367 32.0061 27.7266 31.7969L44.5312 13.2812C44.7468 13.0413 44.8827 12.7405 44.9205 12.4202C44.9583 12.0998 44.896 11.7757 44.7422 11.4922C45.2905 11.1553 45.7522 10.6945 46.0902 10.1469C46.4283 9.59935 46.6333 8.98013 46.6887 8.33899C46.7442 7.69784 46.6486 7.05263 46.4096 6.45512C46.1706 5.85761 45.7948 5.32444 45.3125 4.89841ZM40.9297 6.54685C41.0222 6.44451 41.134 6.36146 41.2587 6.30247C41.3833 6.24347 41.5185 6.20971 41.6562 6.2031H41.7109C41.9711 6.20369 42.2218 6.30117 42.4141 6.47654L43.1953 7.21091C43.3486 7.3503 43.4571 7.53204 43.507 7.73313C43.557 7.93421 43.5461 8.14559 43.4758 8.3405C43.4056 8.53541 43.279 8.70509 43.1123 8.82805C42.9455 8.95101 42.746 9.02172 42.5391 9.03123C42.3978 9.04042 42.2561 9.02169 42.122 8.97611C41.988 8.93054 41.8642 8.85901 41.7578 8.7656L41.4687 8.50779L40.9453 8.03122C40.8465 7.93498 40.7677 7.82015 40.7134 7.69333C40.6591 7.56652 40.6304 7.43023 40.6289 7.29229C40.6275 7.15435 40.6533 7.01748 40.7049 6.88955C40.7565 6.76162 40.8329 6.64516 40.9297 6.54685ZM25.7109 29.375L21.0937 30.7578L22.0312 26.0703L37.5 9.05466L39.5391 10.9375L39.7031 11.0859L41.125 12.375L25.7109 29.375Z" fill="black"/>
</svg>
