<svg width="54" height="48" viewBox="0 0 54 48" fill="none" xmlns="http://www.w3.org/2000/svg">
<path d="M22.9083 4.32672L2.64132 38.4997C2.22346 39.2306 2.00236 40.0592 2.00002 40.9032C1.99768 41.7472 2.21418 42.5771 2.62798 43.3103C3.04178 44.0436 3.63846 44.6546 4.35865 45.0826C5.07883 45.5106 5.89743 45.7407 6.733 45.75H47.267C48.1026 45.7407 48.9212 45.5106 49.6414 45.0826C50.3615 44.6546 50.9582 44.0436 51.372 43.3103C51.7858 42.5771 52.0023 41.7472 52 40.9032C51.9976 40.0592 51.7765 39.2306 51.3587 38.4997L31.0917 4.32672C30.6651 3.61645 30.0645 3.02921 29.3478 2.62166C28.6311 2.21411 27.8225 2 27 2C26.1775 2 25.3689 2.21411 24.6522 2.62166C23.9355 3.02921 23.3349 3.61645 22.9083 4.32672V4.32672Z" stroke="black" stroke-width="3.5" stroke-linecap="round" stroke-linejoin="round"/>
</svg>
