<svg width="50" height="45" viewBox="0 0 50 45" fill="none" xmlns="http://www.w3.org/2000/svg">
<path d="M45.6565 9.17412C43.1417 5.7377 39.6997 3.08904 35.7338 1.5384C31.7678 -0.0122432 27.4421 -0.400658 23.2634 0.418653C19.0846 1.23796 15.2259 3.23107 12.1391 6.16452C9.05231 9.09796 6.86536 12.8503 5.83439 16.9819L3.14292 11.8239C3.04061 11.6302 2.90114 11.4586 2.7325 11.3188C2.56385 11.179 2.36932 11.0738 2.16002 11.0092C1.95072 10.9446 1.73074 10.9219 1.51264 10.9423C1.29455 10.9627 1.0826 11.0258 0.888919 11.1281C0.695233 11.2305 0.523596 11.3699 0.383808 11.5386C0.24402 11.7072 0.138818 11.9017 0.0742086 12.111C0.00959925 12.3203 -0.0131522 12.5403 0.00725346 12.7584C0.0276591 12.9765 0.0908223 13.1885 0.193136 13.3821L5.37609 23.2064V23.2564C5.43484 23.3608 5.50469 23.4586 5.58441 23.5481V23.5981C5.67732 23.6905 5.78081 23.7716 5.89272 23.8397L5.98438 23.8897C6.07503 23.9372 6.16987 23.9763 6.26769 24.0064H6.37602C6.50412 24.0385 6.63559 24.0553 6.76765 24.0564C6.87848 24.0675 6.99014 24.0675 7.10096 24.0564H7.20096C7.28969 24.0303 7.37609 23.9968 7.45927 23.9564H7.50927L17.3335 18.7734C17.7215 18.5768 18.0173 18.2363 18.1577 17.8246C18.298 17.4129 18.2719 16.9627 18.0848 16.57C17.8977 16.1773 17.5645 15.8734 17.1563 15.723C16.7482 15.5727 16.2974 15.5878 15.9003 15.7653L8.73418 19.5484C9.36355 15.4317 11.3229 11.6341 14.3131 8.73558C17.3034 5.83702 21.16 3.99676 25.2943 3.4958C29.4285 2.99484 33.6132 3.86072 37.2091 5.96122C40.8051 8.06172 43.6147 11.2814 45.2091 15.1286C46.8035 18.9758 47.0949 23.2391 46.0389 27.2675C44.9829 31.2959 42.6375 34.8679 39.3608 37.4382C36.0841 40.0085 32.0563 41.4358 27.8923 41.5021C23.7284 41.5684 19.6571 40.2701 16.3003 37.8054C15.9437 37.5592 15.5054 37.4616 15.0781 37.5332C14.6508 37.6049 14.2682 37.8401 14.0114 38.189C13.7545 38.5379 13.6437 38.9731 13.7023 39.4024C13.761 39.8317 13.9845 40.2212 14.3254 40.4885C18.6406 43.6593 23.9486 45.1799 29.2881 44.7749C34.6276 44.3698 39.6455 42.0659 43.433 38.2805C47.2204 34.495 49.527 29.4784 49.9349 24.1391C50.3428 18.7998 48.825 13.4909 45.6565 9.17412Z" fill="black"/>
</svg>
