<svg width="50" height="50" viewBox="0 0 50 50" fill="none" xmlns="http://www.w3.org/2000/svg">
<path d="M25 0C20.0555 0 15.222 1.46622 11.1108 4.21326C6.99953 6.96029 3.79521 10.8648 1.90302 15.4329C0.0108322 20.0011 -0.484251 25.0277 0.480379 29.8773C1.44501 34.7268 3.82603 39.1814 7.32234 42.6777C10.8187 46.174 15.2732 48.555 20.1227 49.5196C24.9723 50.4843 29.9989 49.9892 34.5671 48.097C39.1352 46.2048 43.0397 43.0005 45.7867 38.8892C48.5338 34.778 50 29.9445 50 25C49.9924 18.3719 47.3561 12.0175 42.6693 7.33071C37.9825 2.64394 31.6281 0.00758507 25 0ZM25 46.1693C20.8108 46.1693 16.7157 44.9269 13.2327 42.5993C9.74964 40.2717 7.0351 36.9635 5.43241 33.093C3.82972 29.2225 3.41086 24.9637 4.22883 20.8551C5.04679 16.7466 7.06483 12.9729 10.0277 10.0114C12.9906 7.04984 16.7652 5.03351 20.8741 4.2174C24.983 3.40129 29.2417 3.82206 33.1114 5.4265C36.9812 7.03094 40.2882 9.74697 42.6142 13.2311C44.9402 16.7152 46.1807 20.8108 46.1788 25C46.1738 30.6154 43.9408 35.9994 39.9701 39.9701C35.9994 43.9408 30.6154 46.1738 25 46.1788V46.1693Z" fill="black"/>
<path d="M38.4505 23.3473L18.0455 11.559C17.7552 11.3914 17.4259 11.3031 17.0907 11.3031C16.7555 11.303 16.4262 11.3911 16.1358 11.5585C15.8454 11.726 15.6042 11.9669 15.4363 12.2571C15.2685 12.5473 15.18 12.8765 15.1796 13.2117V36.7787C15.18 37.114 15.2685 37.4432 15.4363 37.7333C15.6042 38.0235 15.8454 38.2644 16.1358 38.4319C16.4262 38.5993 16.7555 38.6875 17.0907 38.6874C17.4259 38.6873 17.7552 38.599 18.0455 38.4314L38.4505 26.6526C38.7401 26.4847 38.9804 26.2436 39.1475 25.9536C39.3145 25.6635 39.4025 25.3347 39.4025 25C39.4025 24.6653 39.3145 24.3364 39.1475 24.0464C38.9804 23.7564 38.7401 23.5153 38.4505 23.3473ZM19.0008 33.4734V16.5266L33.6741 25L19.0008 33.4734Z" fill="black"/>
</svg>
